# xmcd CD database file
#
# Track frame offsets:
#	182
#	14012
#	26315
#	39905
#	52182
#	64027
#	76430
#	88727
#	99295
#	111255
#	123092
#	134477
#	148027
#	162272
#	175455
#	188370
#	202330
#	215802
#	228427
#	241902
#
# Disc length: 3388 seconds
#
# Revision: 0
# Processed by: cddbd v1.4PL0 Copyright (c) Steve Scherf et al.
# Submitted via: CDex 1.50Beta6
#
DISCID=1b0d3a14
DTITLE=Errol Garner - Body and Soul
DYEAR=1900
DGENRE=Jazz
TTITLE0=I cover the waterfront
TTITLE1=Somebody loves me
TTITLE2=Body and Soul
TTITLE3=Undecided
TTITLE4=I can't believe that you're in love with me
TTITLE5=Stardust
TTITLE6=Laura
TTITLE7=This can't be love
TTITLE8=The man I love
TTITLE9=Moonglow
TTITLE10=She's funny that way
TTITLE11=I'm confessin
TTITLE12=Stormy weather
TTITLE13=I'm in the mood for love
TTITLE14=All of me
TTITLE15=September song
TTITLE16=A cottage for sale
TTITLE17=On the sunny side of the street
TTITLE18=All the things you are
TTITLE19=Red sails in the sunset
EXTD=
EXTT0=
EXTT1=
EXTT2=
EXTT3=
EXTT4=
EXTT5=
EXTT6=
EXTT7=
EXTT8=
EXTT9=
EXTT10=
EXTT11=
EXTT12=
EXTT13=
EXTT14=
EXTT15=
EXTT16=
EXTT17=
EXTT18=
EXTT19=
PLAYORDER=
